name rise49.5252peak65.1548fall88.8305.mot
datacolumns 19
datarows 35
range 5.41830700000000 5.47497900000000
endheader
time	ground_force1_vx	ground_force1_vy	ground_force1_vz	ground_force1_px	ground_force1_py	ground_force1_pz	ground_force2_vx	ground_force2_vy	ground_force2_vz	ground_force2_px	ground_force2_py	ground_force2_pz	ground_torque1_x	ground_torque1_y	ground_torque1_z	ground_torque2_x	ground_torque2_y	ground_torque2_z	
5.41830700000000	-11.45829000000000	41.13818000000000	-6.91576400000000	0.29637100000000	0.00000000000000	0.11440300000000	-43.44814500000000	802.98472600000002	-54.59267700000000	0.17756800000000	0.00000000000000	-0.07121900000000	0.00000000000000	-3.13553900000000	0.00000000000000	0.00000000000000	-24.70720500000000	0.00000000000000	
5.41997400000000	-12.66151900000000	48.31435000000000	-7.78532800000000	0.30398100000000	0.00000000000000	0.11499900000000	-44.32705100000000	800.66558599999996	-54.27279400000000	0.17653000000000	0.00000000000000	-0.07116100000000	0.00000000000000	-3.63022500000000	0.00000000000000	0.00000000000000	-24.62623500000000	0.00000000000000	
5.42164400000000	-13.67592100000000	55.60046300000000	-8.57725200000000	0.31085900000000	0.00000000000000	0.11553400000000	-45.21903000000000	798.23945300000003	-53.93152300000000	0.17549500000000	0.00000000000000	-0.07110100000000	0.00000000000000	-4.10823200000000	0.00000000000000	0.00000000000000	-24.54278900000000	0.00000000000000	
5.42330600000000	-14.47148500000000	62.90199200000000	-9.27269800000000	0.31713200000000	0.00000000000000	0.11601800000000	-46.12351400000000	795.70469100000003	-53.56868500000000	0.17446300000000	0.00000000000000	-0.07103700000000	0.00000000000000	-4.55890200000000	0.00000000000000	0.00000000000000	-24.45685900000000	0.00000000000000	
5.42497600000000	-15.03025600000000	70.14591100000000	-9.85887700000000	0.32289700000000	0.00000000000000	0.11646000000000	-47.03984700000000	793.05954999999994	-53.18412400000000	0.17343600000000	0.00000000000000	-0.07097100000000	0.00000000000000	-4.97401400000000	0.00000000000000	0.00000000000000	-24.36842700000000	0.00000000000000	
5.42663900000000	-15.34620600000000	77.28302600000001	-10.32915600000000	0.32823200000000	0.00000000000000	0.11686600000000	-47.96729200000000	790.30216299999995	-52.77770300000000	0.17241500000000	0.00000000000000	-0.07090200000000	0.00000000000000	-5.34800300000000	0.00000000000000	0.00000000000000	-24.27747000000000	0.00000000000000	
5.42831000000000	-15.42416300000000	84.28795200000000	-10.68265000000000	0.33320000000000	0.00000000000000	0.11724100000000	-48.90502400000000	787.43055200000003	-52.34930900000000	0.17140000000000	0.00000000000000	-0.07083000000000	0.00000000000000	-5.67793800000000	0.00000000000000	0.00000000000000	-24.18395500000000	0.00000000000000	
5.42997300000000	-15.27802800000000	91.15714100000000	-10.92341400000000	0.33785200000000	0.00000000000000	0.11758900000000	-49.85213200000000	784.44262900000001	-51.89885300000000	0.17039400000000	0.00000000000000	-0.07075400000000	0.00000000000000	-5.96328200000000	0.00000000000000	0.00000000000000	-24.08783800000000	0.00000000000000	
5.43164100000000	-14.92855200000000	97.90544700000000	-11.05937000000000	0.34223100000000	0.00000000000000	0.11791500000000	-50.80762000000000	781.33620499999995	-51.42627100000000	0.16939700000000	0.00000000000000	-0.07067600000000	0.00000000000000	-6.20549900000000	0.00000000000000	0.00000000000000	-23.98907000000000	0.00000000000000	
5.43331100000000	-14.40094300000000	104.56178100000000	-11.10110700000000	0.34637000000000	0.00000000000000	0.11822000000000	-51.77040300000000	778.10899199999994	-50.93153100000000	0.16841100000000	0.00000000000000	-0.07059400000000	0.00000000000000	-6.40756600000000	0.00000000000000	0.00000000000000	-23.88759000000000	0.00000000000000	
5.43497800000000	-13.72251700000000	111.16437000000001	-11.06067100000000	0.35029900000000	0.00000000000000	0.11850800000000	-52.73931300000000	774.75861099999997	-50.41462900000000	0.16743600000000	0.00000000000000	-0.07050900000000	0.00000000000000	-6.57344300000000	0.00000000000000	0.00000000000000	-23.78333200000000	0.00000000000000	
5.43664000000000	-12.92058400000000	117.75607300000000	-10.95045700000000	0.35404200000000	0.00000000000000	0.11878000000000	-53.71309200000000	771.28260200000000	-49.87559400000000	0.16647400000000	0.00000000000000	-0.07042000000000	0.00000000000000	-6.70755800000000	0.00000000000000	0.00000000000000	-23.67621800000000	0.00000000000000	
5.43831100000000	-12.02069600000000	124.38012700000000	-10.78225300000000	0.35762000000000	0.00000000000000	0.11903800000000	-54.69040300000000	767.67842800000005	-49.31448800000000	0.16552700000000	0.00000000000000	-0.07032800000000	0.00000000000000	-6.81434100000000	0.00000000000000	0.00000000000000	-23.56616200000000	0.00000000000000	
5.43997600000000	-11.04532600000000	131.07657100000000	-10.56651000000000	0.36105000000000	0.00000000000000	0.11928300000000	-55.66981900000000	763.94348600000001	-48.73141000000000	0.16459400000000	0.00000000000000	-0.07023200000000	0.00000000000000	-6.89784500000000	0.00000000000000	0.00000000000000	-23.45307200000000	0.00000000000000	
5.44163900000000	-10.01301900000000	137.87951899999999	-10.31183100000000	0.36434600000000	0.00000000000000	0.11951800000000	-56.64983700000000	760.07512199999996	-48.12649700000000	0.16367900000000	0.00000000000000	-0.07013200000000	0.00000000000000	-6.96145400000000	0.00000000000000	0.00000000000000	-23.33684400000000	0.00000000000000	
5.44330300000000	-8.93797500000000	144.81533099999999	-10.02470200000000	0.36752200000000	0.00000000000000	0.11974200000000	-57.62887100000000	756.07063500000004	-47.49992400000000	0.16278200000000	0.00000000000000	-0.07002800000000	0.00000000000000	-7.00770400000000	0.00000000000000	0.00000000000000	-23.21736800000000	0.00000000000000	
5.44497400000000	-7.83004100000000	151.90166600000001	-9.70942800000000	0.37058600000000	0.00000000000000	0.11995600000000	-58.60525800000000	751.92729399999996	-46.85191000000000	0.16190400000000	0.00000000000000	-0.06992100000000	0.00000000000000	-7.03819500000000	0.00000000000000	0.00000000000000	-23.09452600000000	0.00000000000000	
5.44664400000000	-6.69502500000000	159.14732500000000	-9.36824200000000	0.37355000000000	0.00000000000000	0.12016300000000	-59.57726000000000	747.64235099999996	-46.18271200000000	0.16104700000000	0.00000000000000	-0.06980900000000	0.00000000000000	-7.05359800000000	0.00000000000000	0.00000000000000	-22.96819300000000	0.00000000000000	
5.44831100000000	-5.53525000000000	166.55275800000001	-9.00155600000000	0.37642000000000	0.00000000000000	0.12036100000000	-60.54306900000000	743.21305299999995	-45.49263500000000	0.16021200000000	0.00000000000000	-0.06969200000000	0.00000000000000	-7.05373100000000	0.00000000000000	0.00000000000000	-22.83823600000000	0.00000000000000	
5.44997800000000	-4.35027000000000	174.11106599999999	-8.60830600000000	0.37920300000000	0.00000000000000	0.12055300000000	-61.50080600000000	738.63666200000000	-44.78202600000000	0.15939900000000	0.00000000000000	-0.06957200000000	0.00000000000000	-7.03768700000000	0.00000000000000	0.00000000000000	-22.70451500000000	0.00000000000000	
5.45164500000000	-3.13765700000000	181.80934199999999	-8.18634100000000	0.38190400000000	0.00000000000000	0.12073800000000	-62.44853000000000	733.91046700000004	-44.05128000000000	0.15861100000000	0.00000000000000	-0.06944700000000	0.00000000000000	-7.00400400000000	0.00000000000000	0.00000000000000	-22.56688500000000	0.00000000000000	
5.45330600000000	-1.89379100000000	189.63018299999999	-7.73283100000000	0.38452800000000	0.00000000000000	0.12091600000000	-63.38423800000000	729.03180399999997	-43.30083600000000	0.15784900000000	0.00000000000000	-0.06931700000000	0.00000000000000	-6.95084300000000	0.00000000000000	0.00000000000000	-22.42519500000000	0.00000000000000	
5.45497300000000	-0.61459100000000	197.55323799999999	-7.24465000000000	0.38707900000000	0.00000000000000	0.12108900000000	-64.30587100000000	723.99807399999997	-42.53118400000000	0.15711300000000	0.00000000000000	-0.06918300000000	0.00000000000000	-6.87617100000000	0.00000000000000	0.00000000000000	-22.27928700000000	0.00000000000000	
5.45665400000000	0.70385300000000	205.55665700000000	-6.71871500000000	0.38956100000000	0.00000000000000	0.12125700000000	-65.21132200000000	718.80676500000004	-41.74285600000000	0.15640500000000	0.00000000000000	-0.06904400000000	0.00000000000000	-6.77792700000000	0.00000000000000	0.00000000000000	-22.12900000000000	0.00000000000000	
5.45830400000000	2.06477700000000	213.61838100000000	-6.15226900000000	0.39197500000000	0.00000000000000	0.12142000000000	-66.09843300000000	713.45546800000000	-40.93643600000000	0.15572500000000	0.00000000000000	-0.06890000000000	0.00000000000000	-6.65416800000000	0.00000000000000	0.00000000000000	-21.97417000000000	0.00000000000000	
5.45997100000000	3.47038300000000	221.71717699999999	-5.54308400000000	0.39432300000000	0.00000000000000	0.12157800000000	-66.96501100000000	707.94190100000003	-40.11255200000000	0.15507500000000	0.00000000000000	-0.06875200000000	0.00000000000000	-6.50318500000000	0.00000000000000	0.00000000000000	-21.81462800000000	0.00000000000000	
5.46164400000000	4.92162000000000	229.83342999999999	-4.88960300000000	0.39660800000000	0.00000000000000	0.12173100000000	-67.80882400000000	702.26392699999997	-39.27187900000000	0.15445600000000	0.00000000000000	-0.06859800000000	0.00000000000000	-6.32358100000000	0.00000000000000	0.00000000000000	-21.65020200000000	0.00000000000000	
5.46330500000000	6.41809300000000	237.94964899999999	-4.19100600000000	0.39883000000000	0.00000000000000	0.12188000000000	-68.62761300000000	696.41957900000000	-38.41514000000000	0.15386800000000	0.00000000000000	-0.06844000000000	0.00000000000000	-6.11432800000000	0.00000000000000	0.00000000000000	-21.48072000000000	0.00000000000000	
5.46497500000000	7.95808800000000	246.05073899999999	-3.44722000000000	0.40099000000000	0.00000000000000	0.12202600000000	-69.41909800000001	690.40707199999997	-37.54310100000000	0.15331300000000	0.00000000000000	-0.06827600000000	0.00000000000000	-5.87478300000000	0.00000000000000	0.00000000000000	-21.30600900000000	0.00000000000000	
5.46664500000000	9.53868400000000	254.12404300000000	-2.65888000000000	0.40308900000000	0.00000000000000	0.12216700000000	-70.18097899999999	684.22483299999999	-36.65657100000000	0.15279000000000	0.00000000000000	-0.06810700000000	0.00000000000000	-5.60468400000000	0.00000000000000	0.00000000000000	-21.12589500000000	0.00000000000000	
5.46830500000000	11.15592700000000	262.15921300000002	-1.82724700000000	0.40512600000000	0.00000000000000	0.12230500000000	-70.91095000000000	677.87150899999995	-35.75640500000000	0.15230200000000	0.00000000000000	-0.06793300000000	0.00000000000000	-5.30412700000000	0.00000000000000	0.00000000000000	-20.94020500000000	0.00000000000000	
5.46997400000000	12.80504800000000	270.14795500000002	-0.95411700000000	0.40710200000000	0.00000000000000	0.12243900000000	-71.60670000000000	671.34598800000003	-34.84349600000000	0.15184700000000	0.00000000000000	-0.06775300000000	0.00000000000000	-4.97352400000000	0.00000000000000	0.00000000000000	-20.74876900000000	0.00000000000000	
5.47163600000000	14.48068800000000	278.08368899999999	-0.04169700000000	0.40901500000000	0.00000000000000	0.12257000000000	-72.26592400000000	664.64741000000004	-33.91878000000000	0.15142800000000	0.00000000000000	-0.06756900000000	0.00000000000000	-4.61355700000000	0.00000000000000	0.00000000000000	-20.55142100000000	0.00000000000000	
5.47330400000000	16.17713100000000	285.96117900000002	0.90749800000000	0.41086500000000	0.00000000000000	0.12269800000000	-72.88632900000000	657.77518199999997	-32.98323100000000	0.15104400000000	0.00000000000000	-0.06737900000000	0.00000000000000	-4.22512500000000	0.00000000000000	0.00000000000000	-20.34799700000000	0.00000000000000	
5.47497900000000	17.88850800000000	293.77615300000002	1.89076000000000	0.41265100000000	0.00000000000000	0.12282200000000	-73.46563900000000	650.72898599999996	-32.03786100000000	0.15069500000000	0.00000000000000	-0.06718300000000	0.00000000000000	-3.80929600000000	0.00000000000000	0.00000000000000	-20.13834200000000	0.00000000000000	
